<svg width="40" height="45" viewBox="0 0 40 45" fill="none" xmlns="http://www.w3.org/2000/svg">
<path d="M25.8109 29.2997C25.8975 29.1587 25.9841 29.0203 26.0707 28.8767C29.9666 22.4267 31.9271 16.7844 31.899 12.1085C31.8817 8.89153 30.5918 5.81216 28.311 3.54329C26.0303 1.27443 22.9443 0.00054521 19.7272 1.74968e-07C16.5102 -0.00054486 13.4237 1.27229 11.1422 3.54038C8.86075 5.80847 7.56977 8.88741 7.55137 12.1044C7.52287 16.7844 9.48375 22.4274 13.3796 28.8767C13.4662 29.0203 13.5529 29.1587 13.6395 29.2997C5.4375 30.3133 0 33.2447 0 36.725C0 41.0945 8.6625 44.5172 19.725 44.5172C30.7875 44.5172 39.45 41.0945 39.45 36.725C39.45 33.2447 34.0125 30.3133 25.8109 29.2997ZM8.86387 12.1085C8.85574 10.6768 9.13074 9.25765 9.67305 7.93262C10.2154 6.60758 11.0143 5.40284 12.0239 4.38769C13.0335 3.37253 14.2338 2.56699 15.5559 2.01741C16.8779 1.46782 18.2955 1.18503 19.7273 1.1853C21.159 1.18558 22.5765 1.4689 23.8983 2.01899C25.2202 2.56908 26.4202 3.37507 27.4294 4.39061C28.4386 5.40615 29.2371 6.6112 29.7789 7.93644C30.3207 9.26168 30.5952 10.681 30.5865 12.1127C30.6427 21.4344 21.9277 32.9315 19.725 35.6885C17.5222 32.9315 8.80687 21.434 8.86387 12.1085ZM19.725 43.2047C8.71087 43.2047 1.3125 39.854 1.3125 36.725C1.3125 33.95 6.79837 31.3682 14.4127 30.5308C15.8854 32.8302 17.4923 35.0408 19.2251 37.151C19.2867 37.2236 19.3632 37.2819 19.4496 37.3218C19.5359 37.3618 19.6299 37.3825 19.725 37.3825C19.8201 37.3825 19.9141 37.3618 20.0004 37.3218C20.0868 37.2819 20.1633 37.2236 20.2249 37.151C21.9578 35.0408 23.5648 32.8302 25.0376 30.5308C32.6501 31.3682 38.1379 33.9485 38.1379 36.725C38.1375 39.854 30.7391 43.2047 19.725 43.2047Z" fill="black"/>
</svg>
